# xmcd
#
# Track frame offsets:
#	150
#	23470
#	45181
#	72869
#	88127
#	108824
#	131336
#	145229
#	173375
#	186823
#	201520
#	233811
#	252577
#	283256
#	297603
#
# Disc length: 4351 seconds
#
# Revision: 1
# Processed by: cddbd v1.4PL0 Copyright (c) Steve Scherf et al.
# Submitted via: EasyCDDAExtractor 5.1.0
#
DISCID=d610fd0f
DTITLE=The Old Fashioners - Don't Forget Our Monday Date
DYEAR=1900
DGENRE=Blues
TTITLE0=Dans Les Rues d'Antibes
TTITLE1=Ostrich Walk
TTITLE2=That's My Desire
TTITLE3=Don't Forget Our Monday Date
TTITLE4=Hoochie Coochie Man
TTITLE5=Milenberg Joys
TTITLE6=West Indies Blues
TTITLE7=Move The Body Over
TTITLE8=Mahogany Hall Stomp
TTITLE9=Onions
TTITLE10=Winin' Boy Blues
TTITLE11=Lead Me Saviour
TTITLE12=Lily Of The Valley
TTITLE13=Too Bad
TTITLE14=Reconsider Baby
EXTD=
EXTT0=
EXTT1=
EXTT2=
EXTT3=
EXTT4=
EXTT5=
EXTT6=
EXTT7=
EXTT8=
EXTT9=
EXTT10=
EXTT11=
EXTT12=
EXTT13=
EXTT14=
PLAYORDER=
